<svg width="332" height="477" viewBox="0 0 332 477" fill="none" xmlns="http://www.w3.org/2000/svg">
<g opacity="0.2">
<path d="M221.816 476.165C282.669 476.165 332 468.074 332 458.093C332 448.112 282.669 440.021 221.816 440.021C160.963 440.021 111.632 448.112 111.632 458.093C111.632 468.074 160.963 476.165 221.816 476.165Z" fill="#371A45"/>
</g>
<path d="M217.162 255.015C213.499 235.708 219.8 202.33 204.213 192.423C186.247 181.004 134.847 169.26 112.599 136.629C110.845 110.383 91.491 93.0751 82.3528 96.1821C78.5464 97.4763 76.3386 101.835 76.3386 101.835C54.7183 106.296 52.4725 126.786 57.0152 138.205C61.3061 148.991 63.0261 159.935 65.8331 165.154C77.2572 186.394 120.055 224.382 184.268 247.236" fill="#D8D8D8"/>
<path d="M214.618 255.498C211.044 239.538 217.056 204.133 203.106 194.799C197.141 191.036 190.411 188.423 183.898 185.635C163.774 177.282 142.805 168.723 125.719 154.571C119.989 149.802 114.724 144.341 110.46 138.088C110.196 137.718 110.053 137.298 110.02 136.875C109.306 126.799 105.725 116.825 99.5388 108.848C96.164 104.491 88.655 97.1309 82.9823 98.9378C81.524 99.5347 80.0939 101.071 79.2095 102.489C79.0712 102.718 78.9006 102.984 78.8359 103.122C78.4293 103.9 77.701 104.414 76.9059 104.588C72.7265 105.476 68.7883 107.14 65.6635 109.759C57.482 116.486 56.0667 128.953 60.1494 138.371C62.6668 144.87 64.3623 151.936 66.3234 158.451C67.4599 162.709 69.6841 166.33 72.2376 169.903C88.769 191.758 111.645 208.11 135.123 221.86C151.088 231.048 167.878 238.483 184.701 246.017C185.356 246.308 185.651 247.074 185.36 247.73C185.097 248.323 184.44 248.62 183.833 248.455C165.817 243.53 148.734 235.64 132.499 226.47C108.026 212.404 78.3161 191.678 63.6418 167.128C62.4129 165.012 61.5387 162.468 60.8269 160.153C58.7864 153.376 57.278 146.885 54.7896 140.414C47.4848 122.334 55.8622 102.832 75.7698 99.0829L73.831 100.565C74.0791 100.094 74.253 99.8152 74.476 99.4654C82.8932 86.162 96.9373 96.338 103.847 105.511C110.692 114.432 114.491 125.383 115.18 136.457L114.736 135.171C118.674 140.946 123.592 146.067 129.032 150.593C148.562 166.789 172.925 175.031 195.984 185.215C199.431 186.811 202.738 188.381 205.991 190.501C218.572 199.253 217.664 219.663 218.247 233.218C218.444 240.338 218.444 247.61 219.706 254.545C220.214 257.86 215.404 258.906 214.618 255.498Z" fill="#371A45"/>
<path d="M119.054 217.779C118.051 217.779 117.097 217.193 116.675 216.213C116.11 214.9 116.717 213.378 118.03 212.812C143.197 201.987 143.307 165.577 143.305 165.211C143.298 163.781 144.451 162.617 145.881 162.61C145.885 162.61 145.89 162.61 145.894 162.61C147.317 162.61 148.475 163.76 148.482 165.185C148.49 166.821 148.357 205.403 120.076 217.568C119.742 217.711 119.395 217.779 119.054 217.779Z" fill="#371A45"/>
<path d="M183.673 459.687C204.38 459.687 216.164 459.933 220.37 452.9C226.608 442.462 220.447 418.229 218.183 384.968C217.814 379.539 217.51 374.485 217.27 369.762C214.934 323.831 218.306 309.117 219.47 282.198L157.576 280.451C157.576 280.451 158.644 339.828 160.715 369.665C160.734 369.898 160.747 370.137 160.767 370.377C162.494 394.688 167.166 427.463 167.166 427.463C167.166 427.463 149.527 430.485 148.802 442.624C147.779 459.759 162.287 459.687 183.673 459.687Z" fill="white"/>
<path d="M183.673 459.688C204.38 459.688 216.164 459.934 220.37 452.9C221.166 451.573 221.754 450.02 222.175 448.26C216.164 452.77 204.173 452.583 185.323 452.583C166.577 452.583 152.736 452.628 148.795 442.734C147.844 459.759 162.332 459.688 183.673 459.688Z" fill="#D8D8D8"/>
<path d="M157.576 280.451C157.576 280.451 158.644 339.827 160.715 369.665C160.734 369.898 160.747 370.137 160.767 370.377C186.21 364.605 206.949 367.465 217.27 369.762C214.934 323.832 218.306 309.117 219.471 282.198L157.576 280.451Z" fill="#D8D8D8"/>
<path d="M187.601 462.278C186.971 462.278 186.335 462.277 185.687 462.277L183.423 462.276C183.34 462.276 183.256 462.276 183.172 462.276C168.085 462.276 156.173 462.241 150.13 455.827C147.15 452.665 145.87 448.296 146.217 442.472C146.882 431.313 158.959 426.883 164.278 425.467C163.167 417.401 159.549 390.313 158.129 369.847C156.08 340.28 154.999 281.094 154.989 280.5C154.963 279.07 156.101 277.891 157.53 277.865C157.546 277.865 157.562 277.865 157.577 277.865C158.985 277.865 160.139 278.993 160.165 280.407C160.175 281 161.253 340.054 163.294 369.489C164.957 393.495 169.683 426.763 169.731 427.096C169.929 428.484 168.987 429.776 167.605 430.013C167.453 430.039 151.976 432.849 151.384 442.78C151.127 447.102 151.949 450.209 153.896 452.277C158.414 457.072 169.336 457.1 183.176 457.1C183.258 457.1 183.34 457.1 183.423 457.1H185.689C203.867 457.124 214.834 457.112 218.144 451.573C221.984 445.151 220.395 431.263 218.382 413.681C217.413 405.21 216.314 395.609 215.601 385.145C212.625 341.476 214.121 321.74 215.567 302.654C216.054 296.219 216.559 289.564 216.883 282.084C216.945 280.656 218.132 279.557 219.58 279.61C221.008 279.672 222.116 280.88 222.054 282.308C221.727 289.872 221.22 296.569 220.729 303.045C219.297 321.948 217.816 341.495 220.766 384.793C221.471 395.139 222.563 404.677 223.525 413.092C225.732 432.372 227.326 446.303 222.588 454.23C217.922 462.037 207.08 462.278 187.601 462.278Z" fill="#371A45"/>
<path d="M192.611 390.699C182.66 390.699 171.194 389.239 160.652 384.362C159.354 383.761 158.789 382.222 159.389 380.925C159.99 379.627 161.528 379.064 162.825 379.663C186.779 390.746 217.191 382.559 217.494 382.475C218.876 382.095 220.298 382.904 220.678 384.28C221.059 385.657 220.252 387.082 218.875 387.463C218.099 387.679 206.922 390.699 192.611 390.699Z" fill="#371A45"/>
<path d="M293.262 219.275C286.196 224.257 277.583 228.224 267.961 230.819L264.318 209.562C264.318 209.562 274.788 208.333 282.721 212.027C286.435 213.755 289.981 216.318 293.262 219.275Z" fill="#D8D8D8"/>
<path d="M226.36 341.833C226.36 341.833 235.125 340.814 246.771 338.507C249.048 338.045 251.435 337.545 253.887 336.995C254.276 336.918 254.664 336.826 255.051 336.734C256.222 336.464 257.412 336.186 258.609 335.893C275.793 331.681 294.735 325.026 301.391 315.291C312.262 299.381 305.237 229.654 290.214 203.621C286.257 196.757 275.588 193.184 263.591 191.408C263.512 191.394 263.426 191.387 263.347 191.374C254.541 190.084 245.037 189.763 236.976 189.82C236.262 189.822 235.556 189.829 234.871 189.842C233.487 189.863 232.168 189.898 230.906 189.935C229.926 189.968 228.982 189.998 228.08 190.038C221.649 190.299 217.431 190.712 217.431 190.712L218.296 205.388L218.738 212.871L219.551 226.746L219.8 230.944L226.36 341.833Z" fill="white"/>
<path d="M218.297 205.389L218.737 212.867L224.793 315.267L226.364 341.832C226.364 341.832 226.547 341.81 226.894 341.767C226.993 341.753 227.11 341.738 227.235 341.724C227.333 341.71 227.445 341.695 227.556 341.681C227.641 341.673 227.726 341.659 227.811 341.652C227.844 341.645 227.883 341.644 227.916 341.637C228.073 341.616 228.25 341.594 228.433 341.566C228.473 341.565 228.512 341.558 228.558 341.551C228.709 341.53 228.866 341.508 229.036 341.487C229.265 341.458 229.501 341.422 229.75 341.387C229.927 341.358 230.117 341.336 230.306 341.308C230.503 341.28 230.699 341.251 230.902 341.223C231.158 341.187 231.426 341.144 231.701 341.108C232.258 341.023 232.847 340.938 233.469 340.839C234.019 340.76 234.595 340.669 235.198 340.57C235.891 340.457 236.618 340.344 237.371 340.217C240.153 339.752 243.334 339.184 246.77 338.502C247.437 338.37 248.118 338.231 248.805 338.092C249.283 337.994 249.773 337.89 250.264 337.786C251.448 337.537 252.665 337.273 253.889 336.997C272.18 332.891 294.112 325.929 301.381 315.293C310.341 302.197 307.161 252.602 297.366 220.957C302.03 248.982 302.178 279.57 295.424 289.44C292.086 294.321 285.173 298.45 276.865 301.891C273.325 303.358 269.593 300.327 270.193 296.544C270.198 296.513 270.202 296.483 270.207 296.453C271.282 289.514 271.513 281.693 270.413 272.661C268.052 253.307 261.912 225.798 238.143 205.85C237.587 205.377 228.856 205.346 218.297 205.389Z" fill="#D8D8D8"/>
<path d="M223.939 344.721L214.697 188.372L217.178 188.132C217.335 188.117 233.037 186.628 249.869 187.493C273.144 188.688 287.474 193.678 292.459 202.322C308.118 229.471 314.943 300.056 303.523 316.755C289.781 336.852 229.231 344.105 226.66 344.405L223.939 344.721ZM220.16 193.067L228.781 338.907C240.725 337.259 288.357 329.764 299.251 313.833C303.878 307.066 305.324 287.315 302.937 263.512C300.49 239.123 294.757 216.667 287.975 204.908C280.099 191.253 238.513 191.597 220.16 193.067Z" fill="#371A45"/>
<path d="M294.186 263.888L269.193 268.434C266.962 268.84 265.283 270.696 265.116 272.957C264.502 281.239 264.077 300.441 272.641 305.865C279.75 310.367 290.339 308.634 296.025 302.693C302.385 296.047 301.109 277.393 300.027 268.206C299.69 265.349 297.015 263.373 294.186 263.888Z" fill="white"/>
<path d="M265.118 272.96C264.5 281.24 264.078 300.442 272.643 305.863C279.753 310.367 290.339 308.634 296.028 302.691C299.937 298.601 300.96 289.971 300.916 281.797C300.206 285.958 298.77 289.427 296.781 291.814C285.384 305.489 274.373 291.942 274.373 291.942C274.373 291.942 273.1 295.648 271.81 295.986C266.416 297.4 265.742 280.12 265.6 271.17C265.333 271.715 265.163 272.318 265.118 272.96Z" fill="#D8D8D8"/>
<path d="M281.97 310.998C278.157 310.998 274.398 310.041 271.257 308.052C261.835 302.085 261.748 283.383 262.535 272.766C262.788 269.333 265.337 266.504 268.731 265.887L293.723 261.341C295.775 260.968 297.908 261.465 299.582 262.702C301.254 263.939 302.353 265.835 302.596 267.902C304.112 280.765 304.526 297.552 297.894 304.482C293.825 308.734 287.833 310.998 281.97 310.998ZM294.649 266.434L269.656 270.981C268.583 271.176 267.777 272.067 267.697 273.148C266.522 289.011 268.888 300.424 274.026 303.678C279.924 307.413 289.141 306.142 294.155 300.904C298.123 296.757 299.357 284.646 297.456 268.508C297.378 267.845 297.039 267.261 296.503 266.865C295.967 266.468 295.307 266.313 294.649 266.434Z" fill="#371A45"/>
<path d="M284.711 310.23C273.839 304.566 271.752 290.791 272.476 279.697C272.554 278.938 272.632 278.237 272.841 277.41C272.933 277.045 273.303 276.823 273.669 276.915C274.012 277.002 274.228 277.334 274.177 277.676C273.721 283.223 274.838 289.061 276.535 294.332C278.244 299.018 281.177 303.356 285.624 305.659C285.866 305.779 286.207 305.923 286.311 305.95C289.498 306.934 287.785 311.572 284.711 310.23Z" fill="#371A45"/>
<path d="M251.644 204.384C260.848 202.196 270.084 200.368 279.523 199.494C282.701 199.23 285.903 199.051 289.237 199.258C290.665 199.347 291.75 200.576 291.662 202.004C291.575 203.491 290.224 204.607 288.747 204.413C279.739 203.408 270.39 204.487 261.378 205.598C258.31 206.008 255.227 206.464 252.192 206.995C250.517 207.255 249.993 204.829 251.644 204.384Z" fill="#371A45"/>
<path d="M148.303 321.547C157.382 349.236 189.477 347.049 209.078 348.803C209.078 348.803 224.013 329.694 235.88 338.042C259.259 354.491 273.068 333.434 268.442 306.38C262.307 270.44 256.173 233.129 249.618 205.389C247.605 196.867 245.554 189.244 243.451 182.844L161.737 197.125C159.375 206.185 156.139 219.346 153.163 233.997C146.931 264.662 141.845 301.844 148.303 321.547Z" fill="white"/>
<path d="M153.163 233.996C162.384 237.348 172.66 239.218 183.492 239.218C213.058 239.218 238.469 225.306 249.618 205.388C247.606 196.866 245.555 189.244 243.451 182.844L161.737 197.125C159.375 206.184 156.14 219.346 153.163 233.996Z" fill="#D8D8D8"/>
<path d="M162.991 197.452C157.368 229.753 148.858 261.635 147.981 294.517C147.846 302.491 148.134 310.673 150.074 318.367C155.61 340.589 177.076 344.293 196.907 345.41C200.993 345.677 205.114 345.856 209.309 346.223L207.039 347.207C211.845 341.521 217.418 336.316 224.712 334.023C228.517 332.817 233.321 333.2 236.783 335.533C239.418 337.368 242.342 339.152 245.341 340.174C262.965 346.276 268.041 325.149 266.529 311.743C266.358 309.557 265.975 307.278 265.601 305.11C261.739 282.555 257.917 259.515 253.636 237.098C250.127 219.141 246.517 201.027 240.982 183.625C240.543 182.265 241.289 180.806 242.649 180.366C244.01 179.927 245.469 180.673 245.908 182.033C248.786 190.939 251.029 199.943 253.094 208.969C260.145 240.424 265.221 272.493 270.704 304.239C272.82 316.041 272.84 329.485 265.219 339.506C256.646 350.14 243.719 347.023 234.003 339.899C226.862 335.489 218.298 342.733 213.239 347.977C211.825 349.231 210.956 351.544 208.848 351.379C196.67 350.387 183.604 350.473 171.587 346.672C152.198 340.688 144.316 326.483 143.042 307.027C141.647 286.166 144.65 265.257 148.276 244.895C151.401 228.63 154.861 212.411 160.486 196.799C161.071 195.394 163.181 195.82 162.991 197.452Z" fill="#371A45"/>
<path d="M123.34 115.773C131.202 169.83 181.41 207.282 235.467 199.411C253.674 196.763 270.002 189.306 283.341 178.509C296.448 167.921 306.68 154.11 312.986 138.469C319.328 122.776 321.72 105.235 319.105 87.2744C311.233 33.2174 261.034 -4.22554 206.977 3.63692C152.911 11.5081 115.468 61.716 123.34 115.773Z" fill="white"/>
<path d="M123.333 115.772C123.402 116.264 123.478 116.758 123.566 117.254C134.6 148.987 163.985 172.532 199.677 174.502C246.787 177.106 287.03 141.124 289.578 94.1421C292.119 47.1654 255.997 6.96932 208.892 4.37307C207.012 4.26595 205.145 4.22698 203.294 4.25004C151.224 13.7997 115.648 62.9447 123.333 115.772Z" fill="#371A45"/>
<path d="M131.073 142.29C148.758 181.475 190.804 205.914 235.467 199.41C253.674 196.763 270.002 189.305 283.341 178.509C283.75 178.18 284.159 177.843 284.559 177.505C285.369 176.83 286.17 176.146 286.953 175.444C287.345 175.098 287.737 174.742 288.12 174.387C288.503 174.031 288.886 173.676 289.269 173.312C289.652 172.956 290.026 172.592 290.401 172.219C290.775 171.854 291.149 171.481 291.515 171.108C291.836 170.787 292.157 170.457 292.469 170.136C292.558 170.04 292.648 169.945 292.737 169.858C293.031 169.545 293.326 169.233 293.612 168.92C294.548 167.93 295.45 166.913 296.326 165.887C296.675 165.478 297.023 165.07 297.363 164.652C297.801 164.13 298.231 163.6 298.651 163.069C298.705 163.008 298.758 162.938 298.803 162.877C299.188 162.39 299.573 161.894 299.958 161.389C301.22 159.726 302.431 158.027 303.58 156.293C303.921 155.787 304.262 155.273 304.586 154.749C304.676 154.619 304.757 154.488 304.838 154.357C305.107 153.939 305.368 153.52 305.62 153.092C306.007 152.464 306.385 151.836 306.754 151.199C306.925 150.911 307.087 150.632 307.249 150.344C307.465 149.968 307.673 149.593 307.88 149.209C307.898 149.174 307.916 149.148 307.934 149.113C308.141 148.746 308.34 148.38 308.53 148.013C308.872 147.375 309.207 146.729 309.532 146.082C309.839 145.471 310.147 144.859 310.436 144.248C310.889 143.295 311.333 142.342 311.759 141.381C311.968 140.9 312.177 140.41 312.386 139.929C312.586 139.448 312.786 138.958 312.986 138.468C313.085 133.738 312.482 129.534 311.326 125.895C303.405 100.932 269.644 102.543 260.699 140.963C258.612 153.495 260.83 163.165 265.37 169.55C254.964 174.818 243.542 178.508 231.372 180.278C192.226 185.976 154.889 170.405 131.073 142.29Z" fill="#D8D8D8"/>
<path d="M221.006 203.05C199.296 203.051 178.249 196.105 160.532 182.89C138.799 166.679 124.679 142.975 120.774 116.145C112.713 60.7587 151.214 9.14048 206.601 1.07882C233.43 -2.82724 260.175 3.9506 281.909 20.1609C303.642 36.3716 317.761 60.0753 321.666 86.9054C325.572 113.735 318.795 140.48 302.585 162.214C286.374 183.947 262.67 198.066 235.84 201.971C230.883 202.693 225.926 203.05 221.006 203.05ZM221.423 5.17809C216.752 5.17809 212.052 5.51696 207.346 6.20171C181.884 9.90753 159.389 23.3072 144.006 43.932C128.622 64.5565 122.191 89.9376 125.897 115.4C129.603 140.861 143.002 163.356 163.627 178.74C184.252 194.123 209.632 200.553 235.094 196.849C260.556 193.143 283.051 179.743 298.435 159.119C313.818 138.494 320.25 113.113 316.544 87.6509C312.838 62.1892 299.438 39.6945 278.814 24.3107C262 11.7703 242.025 5.17809 221.423 5.17809Z" fill="#371A45"/>
<path d="M204.538 186.641C202.708 186.641 200.872 186.59 199.03 186.489C177.025 185.272 156.656 176.983 140.127 162.519C139.051 161.578 138.942 159.943 139.883 158.867C140.824 157.79 142.459 157.681 143.536 158.623C159.188 172.319 178.476 180.167 199.316 181.32C223.959 182.679 247.656 174.37 266.012 157.919C284.294 141.533 295.093 119.02 296.42 94.5266C298.314 59.4884 280.487 26.9021 249.893 9.48384C248.651 8.77662 248.217 7.1961 248.924 5.95401C249.632 4.71091 251.213 4.27878 252.454 4.98527C267.947 13.8061 280.735 26.6969 289.436 42.2642C298.38 58.2661 302.583 76.4352 301.589 94.8064C300.187 120.681 288.779 144.464 269.466 161.774C251.453 177.919 228.578 186.641 204.538 186.641Z" fill="#371A45"/>
<path d="M314.066 152.355C294.951 194.999 250.603 179.431 264.747 136.881C283.141 91.4506 330.549 108.087 314.066 152.355Z" fill="white"/>
<path d="M276.42 176.553C263.092 171.983 257.924 152.68 265.608 134.688C268.581 156.661 298.282 130.191 302.344 121.348C334.624 139.954 300.719 185.47 276.42 176.553Z" fill="#D8D8D8"/>
<path d="M283.451 180.179C280.468 180.179 277.625 179.64 275.037 178.633C263.183 174.019 254.645 159.067 262.292 136.064L262.349 135.91C272.3 111.332 291.023 103.724 304.374 108.911C316.42 113.591 325.35 129.465 316.492 153.258L316.428 153.414C307.863 172.521 294.689 180.179 283.451 180.179ZM267.178 137.776C260.648 157.506 267.357 170.089 276.915 173.809C287.034 177.744 302.214 172.399 311.669 151.374C319.258 130.911 312.242 117.521 302.499 113.736C291.524 109.473 275.877 116.364 267.178 137.776Z" fill="#371A45"/>
<path d="M315.586 152.582C300.059 187.123 266.639 176.021 278.074 141.604C292.973 104.306 329.28 116.411 315.586 152.582Z" fill="white"/>
<path d="M315.588 152.583C317.573 147.337 318.506 142.607 318.61 138.449C309.378 159.008 286.669 160.016 278 141.824C266.786 176.069 300.089 187.05 315.588 152.583Z" fill="#D8D8D8"/>
<path d="M291.073 176.181C288.865 176.181 286.769 175.785 284.862 175.042C275.772 171.5 269.389 159.534 275.618 140.787L275.67 140.643C283.914 120.007 298.88 113.356 309.399 117.448C318.742 121.082 325.421 133.914 318.006 153.498L317.946 153.642C310.722 169.716 299.997 176.181 291.073 176.181ZM280.506 142.492C275.389 157.971 279.945 167.57 286.742 170.219C294.14 173.101 305.565 168.501 313.193 151.592C319.317 135.347 314.552 125.007 307.523 122.273C299.39 119.108 287.504 125.039 280.506 142.492Z" fill="#371A45"/>
<g opacity="0.5">
<path d="M267.16 86.4125C261.817 106.118 239.327 100.394 241.073 82.5806C244.545 60.2397 271.162 66.5586 267.16 86.4125Z" fill="white"/>
</g>
<g opacity="0.5">
<path d="M258.83 113.874C256.352 121.292 246.468 118.979 248.413 110.669C250.892 103.251 260.776 105.565 258.83 113.874Z" fill="white"/>
</g>
<g opacity="0.5">
<path d="M146.676 82.8895C144.317 13.6349 215.697 14.2693 235.047 31.5C189.638 28.5487 165.986 53.6566 146.676 82.8895Z" fill="white"/>
</g>
<path d="M53.5115 146.439C53.8156 151.887 55.0904 155.821 57.0511 155.951C61.723 156.249 62.6418 154.158 70.8211 153.421C76.9878 152.858 82.844 128.223 80.1002 119.474C80.0808 119.416 80.0614 119.358 80.0356 119.3C77.8872 113.146 65.683 113.715 63.5993 115.262C55.7051 121.118 52.9484 136.364 53.5115 146.439Z" fill="white"/>
<path d="M53.5112 146.439C53.8154 151.887 55.0901 155.822 57.0508 155.951C61.7228 156.249 62.6416 154.159 70.8209 153.421C76.9875 152.858 82.8438 128.223 80.1 119.475C80.0806 119.416 80.0611 119.358 80.0353 119.3C79.2135 125.764 76.6382 138.428 68.873 143.022C62.0723 147.047 56.5784 148.445 53.5112 146.439Z" fill="#D8D8D8"/>
<path d="M57.9244 158.565C57.5924 158.565 57.2456 158.555 56.8819 158.531C55.3163 158.43 53.1892 157.427 51.9479 153.22C49.2432 144.055 51.0761 121.331 62.0581 113.184C64.4852 111.383 71.1711 111.109 75.814 112.62C79.3488 113.77 81.6854 115.873 82.5711 118.7C84.9387 126.26 81.6775 144.294 76.5546 151.972C74.8933 154.462 73.0422 155.816 71.053 155.996C67.2083 156.345 65.1599 156.989 63.3527 157.558C61.7108 158.074 60.1476 158.565 57.9244 158.565ZM57.5852 153.383C59.1986 153.44 60.2051 153.12 61.7998 152.62C63.754 152.005 66.1861 151.24 70.5853 150.841C70.5806 150.841 71.4012 150.607 72.7234 148.334C76.803 141.322 79.4632 126.097 77.6306 120.247C77.3096 119.222 76.3829 118.393 74.876 117.784C71.2401 116.312 66.1258 116.853 65.0954 117.377C59.0993 121.872 56.4968 133.079 56.0899 141.328C55.7534 148.162 56.8355 152.352 57.5852 153.383Z" fill="#371A45"/>
<path d="M148.303 321.547C158.521 356.904 211.841 348.447 211.841 348.447C211.841 348.447 212.889 352.239 214.824 358.27C219.696 373.437 230.173 402.77 243.703 421.665C243.703 421.665 243.535 426.997 235.194 435.603C233.609 437.234 232.884 439.104 232.586 440.961C232.198 443.317 232.496 445.659 232.561 447.477C233.078 462.309 271.658 462.024 283.719 455.469C298.738 447.309 296.357 416.23 294.778 409.28C294.5 408.05 294.215 406.872 293.93 405.753C289.356 387.505 284.684 383.131 278.957 364.126C277.022 357.713 275.469 350.712 274.123 343.419C270.467 323.67 268.345 301.779 264.443 283.596L145.683 286.042C144.524 308.884 148.303 321.547 148.303 321.547Z" fill="white"/>
<path d="M232.561 447.477C233.079 462.308 271.658 462.024 283.72 455.469C298.739 447.309 296.357 416.229 294.778 409.28C294.5 408.05 294.215 406.872 293.931 405.753C294.112 418.164 292.132 438.049 278.53 445.173C260.703 454.505 237.142 450.324 232.587 440.961C232.199 443.316 232.496 445.659 232.561 447.477Z" fill="#D8D8D8"/>
<path d="M148.303 321.547C158.521 356.904 211.841 348.447 211.841 348.447C211.841 348.447 212.889 352.238 214.824 358.269C235.608 341.536 261.311 341.898 274.123 343.419C270.467 323.67 268.345 301.779 264.443 283.595L145.683 286.041C144.524 308.884 148.303 321.547 148.303 321.547Z" fill="#D8D8D8"/>
<path d="M260.393 462.302C251.46 462.302 242.5 460.872 236.891 457.667C231.356 454.505 230.075 450.428 229.974 447.565C229.96 447.173 229.935 446.755 229.909 446.317C229.707 442.948 229.401 437.858 233.335 433.799C238.966 427.99 240.539 423.888 240.967 422.278C224.438 398.655 212.748 360.819 209.967 351.302C205.466 351.809 194.927 352.617 183.501 350.813C163.325 347.629 150.295 337.758 145.819 322.267C145.665 321.754 141.931 308.936 143.095 285.913C143.167 284.484 144.388 283.394 145.811 283.458C147.238 283.53 148.337 284.746 148.265 286.173C147.151 308.211 150.75 320.688 150.786 320.812C160.264 353.611 210.928 345.972 211.437 345.892C212.739 345.682 213.986 346.488 214.337 347.758C214.466 348.221 227.386 394.431 245.81 420.16C246.142 420.624 246.311 421.182 246.293 421.751C246.272 422.399 245.835 428.341 237.052 437.402C234.705 439.824 234.902 443.109 235.076 446.006C235.105 446.489 235.133 446.95 235.148 447.383C235.228 449.667 236.638 451.561 239.459 453.172C250.079 459.239 274.393 457.59 282.483 453.193C295.587 446.074 293.883 417.021 292.252 409.854C289.572 398.08 286.842 391.71 283.953 384.965C281.603 379.481 279.174 373.811 276.48 364.872C272.176 350.589 269.71 333.421 267.325 316.819C265.653 305.179 264.074 294.185 261.916 284.136C261.615 282.738 262.505 281.362 263.903 281.062C265.3 280.759 266.677 281.652 266.977 283.049C269.172 293.272 270.838 304.868 272.449 316.083C274.807 332.496 277.244 349.468 281.437 363.378C284.047 372.039 286.418 377.574 288.712 382.926C291.696 389.893 294.516 396.473 297.3 408.705C298.632 414.56 302.016 448.472 284.955 457.742C279.625 460.638 270.024 462.302 260.393 462.302Z" fill="#371A45"/>
<path d="M228.963 387.26C227.414 387.26 225.832 387.22 224.216 387.139C222.788 387.067 221.689 385.851 221.761 384.423C221.833 382.995 223.069 381.892 224.477 381.969C258.681 383.693 277.577 364.675 277.763 364.483C278.759 363.458 280.396 363.432 281.422 364.425C282.447 365.418 282.477 367.052 281.486 368.08C280.698 368.897 262.588 387.26 228.963 387.26Z" fill="#371A45"/>
<path d="M264.064 272.509C264.064 272.509 269.239 276.255 269.739 282.376C270.317 289.453 266.014 292.53 266.014 292.53C266.014 292.53 247.061 303.352 215.624 298.174C215.624 298.174 205.931 287.009 215.84 280.006C215.84 280.006 248.908 283.018 264.064 272.509Z" fill="white"/>
<path d="M151.281 315.193L205.367 315.5C211.768 315.539 217.041 310.33 217.079 303.92L217.241 275.138C217.273 269.527 213.281 264.791 207.986 263.676C207.236 263.512 206.458 263.432 205.66 263.426L151.582 263.119C145.173 263.081 139.9 268.29 139.87 274.699L139.737 297.495L139.7 303.481C139.662 309.891 144.879 315.155 151.281 315.193Z" fill="white"/>
<path d="M151.281 315.193L205.367 315.5C211.768 315.539 217.041 310.33 217.079 303.92L217.241 275.138C217.273 269.527 213.281 264.791 207.986 263.676C207.236 263.512 206.458 263.432 205.66 263.426L151.582 263.119C145.173 263.081 139.9 268.29 139.87 274.699L139.737 297.495L139.7 303.481C139.662 309.891 144.879 315.155 151.281 315.193Z" fill="white"/>
<path d="M151.281 315.193L205.367 315.5C211.768 315.539 217.041 310.33 217.079 303.92L217.241 275.138C217.273 269.527 213.281 264.791 207.986 263.676C207.236 263.512 206.458 263.432 205.66 263.426L151.582 263.119C145.173 263.081 139.9 268.29 139.87 274.699L139.737 297.495L139.7 303.481C139.662 309.891 144.879 315.155 151.281 315.193Z" fill="white"/>
<path d="M151.201 315.197L205.287 315.504C211.689 315.543 216.961 310.333 216.999 303.924L217.161 275.142C217.193 269.531 213.201 264.795 207.906 263.679C204.823 265.702 202.866 266.995 202.866 266.995C200.101 290.084 193.457 301.567 164.765 301.872C152.381 302.001 144.575 300.068 139.657 297.499L139.621 303.485C139.583 309.895 144.8 315.159 151.201 315.197Z" fill="#D8D8D8"/>
<path d="M204.432 318.087C204.403 318.087 204.375 318.086 204.345 318.086H204.345L152.271 317.789C143.868 317.741 137.071 310.866 137.12 302.463L137.272 275.686C137.295 271.63 138.906 267.816 141.808 264.947C144.688 262.099 148.485 260.534 152.509 260.534C152.538 260.534 152.568 260.534 152.598 260.534L204.672 260.832C208.728 260.854 212.541 262.465 215.41 265.366C218.279 268.268 219.846 272.1 219.823 276.157L219.67 302.935C219.623 311.307 212.795 318.087 204.432 318.087ZM204.374 312.91C204.393 312.91 204.413 312.91 204.432 312.91C209.954 312.91 214.462 308.434 214.494 302.905L214.647 276.127C214.662 273.453 213.626 270.924 211.73 269.006C209.833 267.088 207.316 266.023 204.643 266.008L152.568 265.711C152.549 265.711 152.529 265.711 152.509 265.711C149.858 265.711 147.352 266.745 145.447 268.628C143.529 270.525 142.464 273.042 142.449 275.715L142.297 302.493C142.265 308.041 146.752 312.581 152.301 312.613L204.374 312.91Z" fill="#371A45"/>
<path d="M170.412 315.102L170.519 315.307L205.37 315.504C210.061 315.525 214.143 312.741 216.001 308.716C216.683 307.259 217.066 305.637 217.072 303.923L217.149 291.136L217.175 286.916L217.212 279.507L217.239 275.142C217.274 268.731 212.064 263.467 205.661 263.428L193.976 263.366C199.356 264.411 203.429 269.185 203.401 274.847L203.356 283.391L203.312 290.396L203.241 303.644C203.199 310.039 197.927 315.252 191.528 315.221L170.412 315.102Z" fill="white"/>
<path d="M164.892 315.068L164.999 315.274L205.37 315.504C210.062 315.526 214.143 312.741 216.002 308.717C216.683 307.259 217.067 305.638 217.072 303.923L217.15 291.136L217.176 286.916L217.213 279.508C214.871 279.171 211.761 279.476 210.051 282.93C207.679 287.715 205.205 286.103 203.356 283.391L203.312 290.397L203.242 303.644C203.199 310.04 197.928 315.253 191.528 315.222L164.892 315.068Z" fill="#D8D8D8"/>
<path d="M205.441 318.092C205.412 318.092 205.382 318.092 205.351 318.091L156.395 317.812C156.394 317.812 156.394 317.812 156.394 317.812L153.814 317.798L153.803 315.224C153.802 313.347 155.048 312.831 156.393 312.69V312.636L157.231 312.64C157.46 312.636 157.685 312.635 157.9 312.635L191.528 312.629C193.978 312.632 196.223 311.711 197.949 310.004C199.677 308.295 200.635 306.03 200.648 303.623L200.812 274.837C200.836 270.491 197.753 266.732 193.481 265.899L193.991 260.771L205.673 260.835C213.527 260.883 219.876 267.307 219.826 275.154L219.662 303.937C219.643 307.726 218.139 311.29 215.427 313.971C212.738 316.63 209.195 318.092 205.441 318.092ZM202.329 312.897L205.382 312.915C205.401 312.915 205.42 312.915 205.439 312.915C207.823 312.915 210.075 311.984 211.788 310.29C213.516 308.582 214.474 306.316 214.486 303.91V303.908L214.65 275.123C214.681 270.129 210.64 266.043 205.642 266.011L202.942 265.996C204.877 268.456 206.007 271.552 205.988 274.867L205.824 303.652C205.807 307.08 204.574 310.324 202.329 312.897Z" fill="#371A45"/>
<path d="M181.992 289.356C181.992 290.421 183.489 299.013 183.489 299.013C183.489 299.013 186.211 299.013 189.553 299.013C193.729 299.013 197.114 294.689 197.114 289.356C197.113 284.022 193.728 279.699 189.553 279.699C186.734 279.699 183.488 279.7 183.488 279.7C183.488 279.7 181.992 287.622 181.992 289.356Z" fill="#22A7F0"/>
<path d="M181.992 289.356C181.992 290.421 183.489 299.013 183.489 299.013C183.489 299.013 186.211 299.013 189.553 299.013C193.729 299.013 197.114 294.689 197.114 289.356C197.113 284.022 193.728 279.699 189.553 279.699C186.734 279.699 183.488 279.7 183.488 279.7C183.488 279.7 181.992 287.622 181.992 289.356Z" fill="#1C7AEA"/>
<path d="M189.553 300.954H185.341C183.317 300.954 181.601 299.507 181.262 297.513C180.051 290.382 180.051 289.636 180.051 289.356C180.051 288.316 180.453 285.559 181.246 281.162C181.6 279.191 183.313 277.758 185.318 277.758L189.553 277.758C194.792 277.758 199.054 282.96 199.054 289.356C199.055 295.75 194.793 300.953 189.553 300.954ZM183.933 289.347C183.948 289.762 184.259 291.975 185.09 296.862C185.11 296.983 185.216 297.072 185.341 297.072H189.553C192.652 297.071 195.173 293.61 195.172 289.356C195.172 285.102 192.651 281.64 189.553 281.64L185.318 281.64C185.194 281.64 185.089 281.729 185.067 281.85C184.235 286.463 183.936 288.744 183.933 289.347Z" fill="#371A45"/>
<path d="M183.489 299.013C187.665 299.013 191.05 294.689 191.05 289.356C191.05 284.023 187.665 279.699 183.489 279.699C179.313 279.699 175.928 284.023 175.928 289.356C175.928 294.689 179.313 299.013 183.489 299.013Z" fill="#22A7F0"/>
<g opacity="0.7">
<path d="M191.048 289.358C191.048 289.76 191.029 290.151 190.992 290.536C190.19 286.304 187.209 283.159 183.646 283.157C179.78 283.157 176.6 286.858 176.142 291.635C175.999 290.905 175.928 290.141 175.928 289.355C175.928 284.021 179.311 279.701 183.488 279.699C187.665 279.697 191.048 284.024 191.048 289.358Z" fill="white"/>
</g>
<path d="M191.048 289.358C191.048 294.687 187.665 299.012 183.488 299.014C179.311 299.01 175.928 294.689 175.928 289.355C175.926 288.515 176.011 287.695 176.17 286.921C177.272 290.518 180.013 293.059 183.216 293.059C186.729 293.063 189.689 289.999 190.534 285.844C190.864 286.931 191.046 288.116 191.048 289.358Z" fill="#1C7AEA"/>
<path d="M183.489 300.954C178.25 300.954 173.987 295.751 173.987 289.356C173.987 282.961 178.249 277.758 183.488 277.758C183.488 277.758 183.489 277.758 183.49 277.758C186.118 277.758 188.559 279.027 190.363 281.33C192.058 283.495 192.991 286.344 192.991 289.356C192.991 292.366 192.059 295.217 190.364 297.381C188.56 299.685 186.119 300.954 183.489 300.954ZM183.489 281.64C183.489 281.64 183.489 281.64 183.488 281.64C180.39 281.64 177.869 285.102 177.869 289.356C177.869 293.61 180.39 297.072 183.489 297.072C184.899 297.072 186.254 296.331 187.307 294.987C188.468 293.503 189.108 291.503 189.108 289.356C189.108 287.208 188.468 285.208 187.306 283.724C186.254 282.381 184.898 281.64 183.489 281.64Z" fill="#371A45"/>
<path d="M168.095 317.022C167.039 317.022 166.173 316.176 166.154 315.116L165.893 300.555C165.844 297.824 164.44 295.318 162.136 293.851C158.647 291.63 156.571 287.835 156.58 283.699L156.626 263.171C156.628 262.101 157.496 261.234 158.567 261.234C158.568 261.234 158.57 261.234 158.571 261.234C159.643 261.236 160.511 262.108 160.508 263.18L160.462 283.708C160.456 286.506 161.861 289.074 164.221 290.576C167.626 292.744 169.703 296.449 169.776 300.485L170.036 315.046C170.056 316.118 169.202 317.003 168.13 317.022C168.118 317.022 168.106 317.022 168.095 317.022Z" fill="#371A45"/>
<path d="M264.064 272.509C264.064 272.509 269.239 276.255 269.739 282.376C270.317 289.453 266.014 292.53 266.014 292.53C266.014 292.53 247.061 303.352 215.624 298.174C215.624 298.174 205.931 287.009 215.84 280.006C215.84 280.006 248.908 283.018 264.064 272.509Z" fill="white"/>
<path d="M269.737 282.38C270.315 289.449 266.014 292.525 266.014 292.525C266.014 292.525 247.065 303.352 215.621 298.171C215.621 298.171 212.434 294.489 211.588 290.041C211.745 290.256 211.846 290.366 211.846 290.366C234.825 294.156 251.132 289.389 258.242 286.551C263.181 284.58 266.328 279.87 265.978 274.786C265.973 274.717 265.968 274.646 265.962 274.576C265.954 274.457 265.946 274.339 265.918 274.227C267.455 275.899 269.441 278.713 269.737 282.38Z" fill="#D8D8D8"/>
<path d="M232.489 302.177C227.243 302.177 221.466 301.76 215.204 300.728L214.283 300.576L213.67 299.871C213.44 299.606 208.053 293.313 208.878 286.488C209.292 283.056 211.132 280.164 214.345 277.892L215.124 277.342L216.074 277.428C216.394 277.455 248.387 280.229 262.589 270.382L264.096 269.338L265.581 270.412C265.832 270.594 271.729 274.939 272.318 282.166C273.008 290.608 267.744 294.474 267.519 294.635L267.297 294.777C266.648 295.148 254.033 302.177 232.489 302.177ZM217.037 295.778C245.09 300.13 262.809 291.296 264.588 290.358C265.078 289.938 267.564 287.549 267.159 282.587C266.906 279.488 265.075 277.077 263.797 275.749C248.946 284.504 222.254 283.078 216.62 282.665C215.081 283.944 214.228 285.399 214.019 287.092C213.586 290.6 215.934 294.275 217.037 295.778Z" fill="#371A45"/>
<path d="M192.45 429.519C184.103 428.917 175.613 429.241 167.294 430.049C163.882 430.302 163.355 425.354 166.757 424.892C175.496 424.881 184.174 425.462 192.787 426.953C194.383 427.256 194.075 429.642 192.45 429.519Z" fill="#371A45"/>
<path d="M272.692 420.641C262.364 424.347 249.637 425.823 240.264 418.96C238.892 417.939 237.675 416.724 236.556 415.429C235.621 414.346 235.741 412.71 236.824 411.775C237.975 410.77 239.773 411.001 240.644 412.252C247.658 421.822 261.51 421.08 271.805 418.21C273.401 417.691 274.261 420.002 272.692 420.641Z" fill="#371A45"/>
<path d="M157.065 76.1073C158.649 78.7131 160.05 81.3808 161.268 84.0939C150.738 94.9672 129.274 111.009 103.227 126.84C77.1829 142.669 53.0568 154.337 38.5564 158.676C36.7088 156.346 34.9858 153.874 33.402 151.268C33.3274 151.145 33.2544 151.025 33.1823 150.901C32.4887 149.749 31.8346 148.586 31.2162 147.412C29.7633 144.664 28.5064 141.859 27.4395 139.015C27.3958 138.9 27.3522 138.785 27.3111 138.668C25.7494 134.436 24.6074 130.12 23.8727 125.77C22.4742 117.495 22.5483 109.108 24 100.983C27.5262 81.2576 39.1813 63.0831 57.6532 51.8562C75.9736 40.7213 97.2753 38.6839 116.29 44.4628C124.096 46.8319 131.517 50.5218 138.189 55.4377C141.757 58.065 145.11 61.0473 148.193 64.3649C148.444 64.6308 148.69 64.8994 148.934 65.1722C150.967 67.429 152.878 69.8363 154.649 72.3914C155.306 73.3381 155.944 74.3065 156.561 75.2945C156.731 75.5631 156.898 75.8332 157.065 76.1073Z" fill="#FFB200"/>
<path d="M167.565 111.474C167.653 114.436 167.56 117.393 167.284 120.329C166.905 124.454 166.167 128.537 165.09 132.529C160.423 149.847 149.349 165.467 132.812 175.517C116.239 185.59 97.2258 188.218 79.6737 184.352C75.8189 183.502 72.0341 182.339 68.3645 180.873C65.4849 179.726 62.6781 178.39 59.9575 176.877C77.0335 170.297 96.5223 160.667 116.432 148.567C136.339 136.468 153.861 123.602 167.565 111.474Z" fill="#FF9100"/>
<path d="M161.266 84.0934C150.74 94.9655 129.273 111.01 103.228 126.839C77.1823 142.669 53.0542 154.337 38.5539 158.678C36.7094 156.344 34.9866 153.873 33.3992 151.268C33.3245 151.145 33.2543 151.026 33.1796 150.902C32.4879 149.748 31.8321 148.587 31.2162 147.413C29.764 144.666 28.507 141.861 27.4372 139.015C27.394 138.9 27.3508 138.785 27.3121 138.669C25.7505 134.435 24.6075 130.119 23.8708 125.771C22.4754 117.496 22.5494 109.108 23.9993 100.981C26.8528 85.0278 35.0171 70.0943 47.8121 59.0261C44.8554 65.0794 42.7631 71.5135 41.5834 78.117C40.1292 86.2443 40.055 94.6276 41.455 102.906C42.1872 107.255 43.3302 111.571 44.8916 115.801C44.9349 115.921 44.9781 116.036 45.0213 116.151C45.0784 116.303 45.155 116.491 45.249 116.71C50.3653 128.626 64.2671 132.231 76.9571 129.559C101.146 124.465 150.72 89.6226 161.206 81.6961C162.209 83.5008 160.432 82.2396 161.266 84.0934Z" fill="#FF9100"/>
<path d="M116.432 148.567C136.339 136.468 153.861 123.602 167.565 111.474C167.653 114.436 167.561 117.393 167.285 120.329C156.791 130.097 139.656 142.668 119.418 154.969C100.032 166.751 81.7377 175.892 68.3645 180.873C65.485 179.726 62.6781 178.39 59.9575 176.877C77.0338 170.297 96.5226 160.667 116.432 148.567Z" fill="#D66B09"/>
<g opacity="0.35">
<path d="M161.655 74.3858C161.196 74.8617 160.719 75.343 160.218 75.8355C160.65 75.2426 161.077 74.6374 161.486 74.0251C161.542 74.1432 161.599 74.2614 161.655 74.3858Z" fill="#371A45"/>
</g>
<path d="M156.56 75.2944C156.73 75.5631 156.898 75.8334 157.064 76.1075C158.648 78.7133 160.049 81.381 161.267 84.0941C150.738 94.9674 129.273 111.009 103.226 126.84C77.1822 142.669 53.0562 154.337 38.5557 158.676C36.7081 156.346 34.9851 153.874 33.4013 151.268C33.3267 151.146 33.2537 151.025 33.1816 150.901C47.035 147.637 71.6467 136.194 98.1982 120.056C125.798 103.281 147.932 86.0295 156.56 75.2944Z" fill="#D66B09"/>
<path d="M24.0419 128.202L23.7026 123.337C33.5523 122.651 58.1643 111.393 83.5536 95.9617C113.843 77.5518 132.853 61.1227 135.976 54.4089L140.399 56.4665C136.266 65.35 114.44 82.8971 86.0875 100.129C59.6887 116.174 34.755 127.456 24.0419 128.202Z" fill="#D66B09"/>
<path d="M24.6474 103.334L23.3516 98.632C34.1611 95.6539 52.4506 86.7693 71.0832 75.4445C90.6069 63.5785 107.227 51.0904 114.456 42.854L118.122 46.0718C110.588 54.6548 93.5347 67.5069 73.6171 79.6122C54.6254 91.1551 35.8611 100.245 24.6474 103.334Z" fill="#D66B09"/>
<path d="M27.5935 141.091L27.0269 136.246C38.2669 134.93 63.6851 123.187 90.2775 107.025C118.171 90.0714 141.111 72.0398 146.064 63.1753L150.322 65.554C144.915 75.2303 121.803 93.5714 92.8114 111.192C65.251 127.944 39.6514 139.679 27.5935 141.091Z" fill="#D66B09"/>
<path d="M79.9081 185.549L79.6746 184.356L78.9795 183.35L79.1885 183.206L79.4402 183.155C89.069 181.271 106.859 173.022 124.762 162.142C142.763 151.2 157.853 139.56 164.142 131.764L166.04 133.295C159.586 141.296 144.254 153.148 126.029 164.225C107.621 175.413 89.949 183.584 79.9081 185.549Z" fill="#D66B09"/>
<path d="M95.221 187.919C82.7554 187.919 70.276 184.799 59.0332 178.536L55.4888 176.562L59.2747 175.103C76.8579 168.329 96.2814 158.59 115.445 146.942C134.608 135.296 152.195 122.539 166.306 110.051L169.343 107.363L169.464 111.417C170.26 138.102 156.594 163.286 133.799 177.141C121.993 184.316 108.615 187.919 95.221 187.919ZM64.5351 177.113C85.9523 187.452 111.373 186.324 131.825 173.893C152.278 161.462 164.985 139.417 165.668 115.646C151.964 127.394 135.37 139.28 117.419 150.19C99.4674 161.101 81.2743 170.359 64.5351 177.113Z" fill="#371A45"/>
<path d="M197.47 63.5461C202.975 72.6041 190.711 90.9905 167.565 111.474C153.861 123.602 136.339 136.468 116.432 148.567C96.5227 160.667 77.0339 170.297 59.9579 176.877C31.1166 187.99 9.15062 190.408 3.64537 181.35C-1.35449 173.124 8.29747 157.21 27.4392 139.015C28.5062 141.86 29.7632 144.664 31.216 147.412C25.9774 152.881 23.5727 157.005 24.8364 159.085C26.1236 161.203 31.0512 160.92 38.5561 158.676C53.0566 154.337 77.1826 142.669 103.227 126.84C129.273 111.009 150.738 94.9676 161.267 84.0943C166.712 78.4672 169.232 74.2231 167.945 72.1053C166.683 70.0283 161.913 70.2611 154.648 72.3915C152.878 69.8364 150.967 67.4291 148.934 65.1723C173.9 56.5596 192.47 55.3198 197.47 63.5461Z" fill="#FFD766"/>
<path d="M30.6363 146.298C30.8279 146.671 31.0194 147.043 31.2179 147.415C25.9766 152.882 23.5688 157.003 24.8342 159.084C26.1253 161.206 31.0563 160.922 38.5561 158.676C48.1726 155.799 62.033 149.693 77.8773 141.286C77.7836 142.769 77.9422 144.137 78.3609 145.365C72.235 148.526 66.2724 151.383 60.5924 153.888C35.8969 164.776 22.5253 166.236 20.5499 162.985C19.394 161.089 21.4599 155.715 30.6363 146.298Z" fill="#FFAA39"/>
<path d="M28.3174 143.033L29.0188 143.729C24.2777 148.39 20.6739 152.484 18.021 156.024C19.8854 152.418 23.3123 148.104 28.3174 143.033Z" fill="#FF9100"/>
<path d="M29.7209 144.417L29.019 143.729C29.0983 143.643 29.1911 143.557 29.2839 143.471L29.7209 144.417Z" fill="#FF9100"/>
<path d="M18.0213 156.025C16.0617 159.779 15.7979 162.761 17.1791 165.039C18.5286 167.253 21.2057 168.268 24.764 168.41C34.0444 168.782 49.2807 163.192 62.1817 157.502C68.0227 154.928 74.154 151.981 80.4555 148.731C81.9113 150.179 83.941 151.209 86.4887 151.848C77.1846 156.712 68.1043 160.972 59.5422 164.49C29.0153 177.029 15.0236 176.27 12.3121 171.814C10.808 169.338 11.9456 164.121 18.0213 156.025Z" fill="#FFAA39"/>
<path d="M115.205 149.308C95.725 161.065 76.6842 170.432 59.9551 176.877C31.1157 187.991 9.14668 190.408 3.64012 181.347C-1.35639 173.125 8.30009 157.211 27.4394 139.015C27.7565 139.86 28.0945 140.699 28.4461 141.539L27.0651 140.114C15.9775 150.872 3.82823 165.461 8.94149 173.86C10.9169 177.111 14.8577 178.527 19.8722 178.728C31.6739 179.193 49.3795 172.931 61.0406 168.141C71.2743 163.94 82.2315 158.689 93.4058 152.647C99.3277 152.705 106.722 151.556 115.205 149.308Z" fill="#FFAA39"/>
<path d="M80.456 148.731C74.1543 151.981 68.0232 154.928 62.1821 157.501C49.2811 163.191 34.0448 168.781 24.7644 168.41C21.2061 168.268 18.529 167.253 17.1795 165.038C15.7984 162.761 16.0621 159.778 18.0218 156.024C20.6746 152.484 24.2784 148.39 29.0195 143.729L29.7214 144.417C30.0195 145.048 30.3247 145.673 30.6368 146.298C21.4605 155.715 19.3947 161.088 20.5504 162.985C22.5259 166.236 35.8975 164.775 60.593 153.888C66.2729 151.383 72.2354 148.526 78.3615 145.365C78.564 145.978 78.8299 146.553 79.1592 147.096C79.5206 147.689 79.9528 148.236 80.456 148.731Z" fill="#FFCF6E"/>
<path d="M29.0193 143.729C24.2782 148.39 20.6744 152.484 18.0215 156.024C19.8857 152.418 23.3126 148.104 28.3179 143.033L29.0193 143.729Z" fill="#FFEC90"/>
<path d="M29.7207 144.417L31.124 145.802C30.959 145.967 30.7942 146.132 30.6362 146.298C30.3242 145.673 30.0189 145.049 29.7207 144.417Z" fill="#FFEC90"/>
<path d="M149.347 104.528C137.448 114.083 122.927 124.146 107.343 133.616C98.2813 139.123 89.2086 144.223 80.4555 148.73C79.9523 148.236 79.5202 147.689 79.1585 147.096C78.8293 146.553 78.5634 145.978 78.3608 145.365C87.1202 140.871 96.2137 135.765 105.296 130.246C120.733 120.859 135.112 110.9 146.869 101.449C167.905 84.5393 175.356 73.3404 173.388 70.0968C172.206 68.1574 166.307 67.5293 153.266 71.5763L152.388 68.741L152.095 67.8004C158.93 65.6793 164.353 64.6235 168.419 64.6277C172.622 64.6376 175.377 65.7797 176.758 68.0437C181.633 76.0614 164.539 92.3102 149.347 104.528Z" fill="#FFEC90"/>
<path d="M93.4059 152.648C82.2316 158.689 71.2746 163.941 61.0408 168.141C49.3797 172.932 31.6741 179.193 19.8723 178.728C14.8578 178.528 10.9171 177.111 8.94163 173.86C3.82837 165.461 15.9776 150.872 27.0652 140.115L28.4462 141.539C28.716 142.19 28.993 142.834 29.284 143.472C29.1911 143.557 29.0983 143.643 29.0192 143.729L28.3178 143.034C23.3127 148.104 19.8857 152.419 18.0214 156.025C11.9456 164.121 10.808 169.339 12.3122 171.814C15.0236 176.271 29.0154 177.03 59.5424 164.49C68.1045 160.973 77.1848 156.712 86.4888 151.848C88.4845 152.355 90.7994 152.619 93.4059 152.648Z" fill="#FFCF6E"/>
<path d="M28.3174 143.034L29.0188 143.729C24.2777 148.39 20.6739 152.484 18.021 156.025C19.8854 152.419 23.3123 148.104 28.3174 143.034Z" fill="#FFAA39"/>
<path d="M28.4463 141.539L29.8142 142.949C29.6351 143.128 29.4562 143.3 29.2841 143.472C28.9931 142.834 28.716 142.19 28.4463 141.539Z" fill="#FFEC90"/>
<path d="M159.313 108.415C146.145 119.571 129.893 131.113 112.313 141.797C106.002 145.638 99.6716 149.265 93.406 152.648C90.7995 152.619 88.4846 152.355 86.4888 151.848C94.3168 147.765 102.306 143.254 110.267 138.419C127.671 127.845 143.746 116.427 156.764 105.403C181.952 84.0765 187.719 71.3033 185.015 66.8468C183.51 64.3786 178.372 62.9828 168.419 64.6282C164.042 65.3546 158.732 66.6696 152.388 68.7415C152.04 68.8583 151.684 68.9747 151.329 69.0914L150.082 65.3467C164.733 60.4559 183.279 56.3951 188.386 64.7937C195.022 75.7097 173.022 96.8054 159.313 108.415Z" fill="#FFEC90"/>
<path d="M18.4904 189.18C10.1214 189.18 4.34718 186.982 1.65796 182.558C-5.7982 170.29 13.6064 148.955 25.837 137.33L28.3823 134.911L29.6158 138.199C30.6557 140.97 31.8854 143.704 33.2709 146.325L34.0555 147.809L32.8947 149.02C26.936 155.24 26.8145 157.542 26.8349 157.87C27.1214 158.042 29.2872 159.022 37.8896 156.449C52.6456 152.033 77.2187 139.926 102.019 124.853C126.819 109.78 148.882 93.5419 159.596 82.4767C165.837 76.0278 165.966 73.6548 165.946 73.3206C165.663 73.1518 163.56 72.2014 155.302 74.6225L153.693 75.0949L152.737 73.7157C151.048 71.2782 149.187 68.9277 147.206 66.7287L144.855 64.1196L148.175 62.9744C164.126 57.4708 192.001 50.0705 199.456 62.3384C205.489 72.2634 194.426 90.8076 169.105 113.215C154.81 125.867 137.013 138.778 117.639 150.553C98.2645 162.33 78.6073 172.182 60.7932 179.046C43.3092 185.783 28.8942 189.18 18.4904 189.18ZM26.5722 143.088C9.72648 159.666 1.73269 173.727 5.63203 180.142C10.1713 187.611 31.1671 185.478 59.1214 174.706C76.6818 167.941 96.0817 158.214 115.224 146.58C134.366 134.946 151.932 122.204 166.023 109.733C188.459 89.8784 200.023 72.2231 195.483 64.7537V64.7534C191.583 58.3387 175.422 58.9596 152.948 66.2783C153.863 67.3961 154.748 68.5418 155.596 69.7095C163.573 67.5693 168.145 67.9569 169.932 70.8977C171.864 74.0763 169.642 78.7837 162.938 85.7111C151.8 97.2131 129.93 113.331 104.434 128.827C78.9386 144.322 54.5603 156.314 39.2226 160.904C29.985 163.667 24.7815 163.472 22.849 160.293C21.0608 157.351 22.8241 153.112 28.3983 147.018C27.7527 145.728 27.1427 144.415 26.5722 143.088Z" fill="#371A45"/>
<g opacity="0.41">
<path d="M159.485 85.7648C158.26 87.0308 156.889 88.3634 155.376 89.7621C154.475 87.9546 153.49 86.1673 152.425 84.4133C152.257 84.1402 152.089 83.8714 151.922 83.6027C151.306 82.6115 150.668 81.6432 150.009 80.6978C148.239 78.1427 146.326 75.7346 144.295 73.477C144.051 73.2057 143.803 72.9391 143.554 72.6723C140.472 69.354 137.116 66.3692 133.546 63.7435C126.875 58.8292 119.456 55.1373 111.65 52.7709C92.6337 46.9923 71.3313 49.0264 53.0116 60.1629C40.7823 67.5966 31.5388 78.078 25.6665 90.0404C31.1472 75.3405 41.4225 62.3091 55.8731 53.5259C74.1929 42.394 95.4952 40.3553 114.507 46.1341C122.313 48.5049 129.737 52.1921 136.408 57.111C139.974 59.7369 143.329 62.7171 146.411 66.0355C146.664 66.3019 146.908 66.5732 147.152 66.8445C149.187 69.1021 151.096 71.5058 152.866 74.0609C153.526 75.0107 154.163 75.979 154.779 76.9658C154.951 77.2345 155.119 77.5032 155.283 77.7809C156.865 80.3852 158.266 83.0525 159.485 85.7648Z" fill="white"/>
</g>
<path d="M37.7129 161.356L36.7338 160.121C34.8211 157.709 33.0315 155.137 31.4143 152.476C30.6204 151.169 29.8615 149.83 29.1583 148.496C27.6821 145.704 26.3705 142.788 25.2618 139.832C12.7006 106.32 25.8152 68.4856 56.4449 49.8691C87.0752 31.2519 126.698 37.0335 150.66 63.6153C152.774 65.9609 154.759 68.4677 156.559 71.067C157.416 72.2994 158.255 73.59 159.051 74.8996C160.67 77.5623 162.129 80.3353 163.388 83.1425L164.033 84.5799L162.937 85.7118C151.8 97.2131 129.93 113.331 104.434 128.827C78.9386 144.322 54.5604 156.314 39.2226 160.904L37.7129 161.356ZM95.222 43.656C82.7346 43.656 70.1469 46.9834 58.8606 53.8433C30.1375 71.3008 17.8385 106.777 29.6162 138.2C30.6559 140.97 31.8854 143.704 33.2711 146.325C33.9321 147.579 34.6439 148.836 35.3885 150.061C36.6289 152.102 37.977 154.087 39.4075 155.979C54.295 151.217 78.0511 139.42 102.019 124.854C125.987 110.286 147.398 94.6304 158.48 83.6076C157.46 81.4677 156.319 79.3573 155.078 77.3155C154.331 76.0867 153.544 74.8763 152.739 73.7187C151.048 71.2784 149.187 68.9279 147.206 66.7288C133.567 51.5986 114.514 43.656 95.222 43.656Z" fill="#371A45"/>
<path d="M154.665 141.665C154.665 141.665 154.24 123.459 155.93 108.418C157.621 93.3768 137.907 98.9936 140.673 118.792C143.249 137.222 147.771 145.484 147.771 145.484" fill="white"/>
<path d="M147.769 148.072C146.855 148.072 145.97 147.586 145.5 146.728C145.306 146.374 140.721 137.834 138.11 119.151C136.653 108.728 140.849 101.934 145.26 99.0504C148.482 96.9451 152.023 96.6853 154.737 98.3563C156.459 99.4162 159.237 102.171 158.502 108.707C156.851 123.404 157.248 141.425 157.252 141.605C157.286 143.034 156.154 144.219 154.726 144.253C153.306 144.289 152.111 143.155 152.077 141.726C152.06 140.976 151.667 123.171 153.358 108.129C153.657 105.469 153.158 103.463 152.022 102.764C151.076 102.182 149.57 102.419 148.092 103.384C145.151 105.306 142.114 110.401 143.237 118.435C145.699 136.048 150.002 144.169 150.045 144.249C150.723 145.504 150.259 147.075 149.005 147.756C148.612 147.97 148.187 148.071 147.769 148.072Z" fill="#371A45"/>
<path d="M99.4329 138.204C103.723 148.991 105.444 159.933 108.253 165.155C119.078 185.286 158.085 220.462 216.802 243.531C220.037 244.812 223.337 246.041 226.689 247.238L259.581 255.016C255.918 235.707 262.221 202.331 246.632 192.423C230.843 182.387 189.216 172.098 164.264 147.593C160.828 144.222 157.709 140.579 155.018 136.632C154.804 133.422 154.325 130.342 153.633 127.417C148.676 106.451 132.79 93.4579 124.773 96.1821C120.968 97.4763 118.755 101.838 118.755 101.838C107.858 104.083 101.885 110.405 99.2192 117.581C96.5986 124.641 97.1811 132.542 99.4329 138.204Z" fill="white"/>
<path d="M99.4338 138.204C103.724 148.991 105.445 159.934 108.254 165.156C119.079 185.286 158.086 220.462 216.803 243.531C196.762 232.401 165.236 213.26 156.035 198.5C140.317 173.296 148.088 156.2 164.266 147.593C160.83 144.222 157.711 140.579 155.019 136.632C154.805 133.422 154.326 130.342 153.634 127.417C152.036 135.396 147.868 145.283 137.256 149.968C107.911 162.917 112.013 144.306 106.429 133.979C102.974 127.598 99.0394 125.974 99.2205 117.582C96.5996 124.641 97.182 132.542 99.4338 138.204Z" fill="#D8D8D8"/>
<path d="M257.038 255.498C253.464 239.538 259.477 204.133 245.526 194.799C239.562 191.036 232.831 188.423 226.318 185.635C206.195 177.282 185.225 168.723 168.139 154.571C162.409 149.802 157.144 144.341 152.88 138.088C152.617 137.718 152.473 137.298 152.441 136.875C151.726 126.799 148.145 116.825 141.959 108.848C138.584 104.491 131.075 97.1309 125.403 98.9378C123.944 99.5347 122.514 101.071 121.63 102.489C121.492 102.718 121.321 102.984 121.256 103.122C120.85 103.9 120.121 104.414 119.326 104.588C115.147 105.476 111.209 107.14 108.084 109.759C99.9023 116.486 98.4871 128.953 102.57 138.371C105.087 144.87 106.783 151.936 108.744 158.451C109.88 162.709 112.105 166.33 114.658 169.903C131.19 191.758 154.066 208.11 177.543 221.86C193.508 231.048 210.299 238.483 227.122 246.017C227.777 246.308 228.072 247.074 227.781 247.73C227.518 248.323 226.861 248.62 226.254 248.455C208.237 243.53 191.155 235.64 174.919 226.47C150.446 212.404 120.737 191.678 106.062 167.128C104.833 165.012 103.959 162.468 103.247 160.153C101.207 153.376 99.6986 146.885 97.21 140.414C89.9052 122.334 98.2827 102.832 118.19 99.0829L116.251 100.565C116.499 100.094 116.673 99.8152 116.896 99.4654C125.314 86.162 139.358 96.338 146.267 105.511C153.112 114.432 156.912 125.383 157.601 136.457L157.157 135.171C161.094 140.946 166.013 146.067 171.452 150.593C190.983 166.789 215.346 175.031 238.404 185.215C241.851 186.811 245.158 188.381 248.411 190.501C260.992 199.253 260.084 219.663 260.668 233.218C260.865 240.338 260.864 247.61 262.126 254.545C262.634 257.86 257.825 258.906 257.038 255.498Z" fill="#371A45"/>
<path d="M161.475 217.779C160.472 217.779 159.518 217.193 159.096 216.213C158.531 214.9 159.138 213.378 160.451 212.813C185.566 202.009 185.727 165.576 185.726 165.209C185.721 163.78 186.874 162.617 188.303 162.61C188.307 162.61 188.311 162.61 188.314 162.61C189.738 162.61 190.895 163.76 190.902 165.185C190.911 166.821 190.778 205.403 162.496 217.568C162.164 217.712 161.817 217.779 161.475 217.779Z" fill="#371A45"/>
<path d="M155.019 136.629C155.019 136.629 155.019 146.312 148.22 153.149Z" fill="white"/>
<path d="M157.607 136.629C157.119 141.596 155.345 146.417 152.415 150.448C151.476 151.787 150.316 152.958 149.138 154.062C148.616 154.55 147.798 154.523 147.31 154.002C146.838 153.501 146.855 152.731 147.302 152.237C150.905 147.941 152.625 142.188 152.43 136.629C152.25 132.87 157.781 132.861 157.607 136.629Z" fill="#371A45"/>
</svg>
